<?xml version="1.0" standalone="no"?>
<!DOCTYPE svg PUBLIC "-//W3C//DTD SVG 20010904//EN"
 "http://www.w3.org/TR/2001/REC-SVG-20010904/DTD/svg10.dtd">
<svg version="1.0" xmlns="http://www.w3.org/2000/svg"
 width="566.000000pt" height="566.000000pt" viewBox="0 0 566.000000 566.000000"
 preserveAspectRatio="xMidYMid meet">
<metadata>
Created by potrace 1.11, written by Peter Selinger 2001-2013
</metadata>
<g transform="translate(0.000000,566.000000) scale(0.100000,-0.100000)"
fill="#000000" stroke="none">
<path d="M4447 5609 c-16 -4 -39 -20 -52 -34 -12 -15 -85 -140 -160 -279 -76
-138 -148 -269 -160 -291 -66 -118 -303 -549 -332 -603 -19 -35 -107 -195
-195 -355 -88 -161 -176 -321 -196 -357 -19 -36 -133 -243 -252 -460 -119
-217 -235 -429 -258 -470 -22 -41 -81 -149 -131 -239 -50 -90 -91 -168 -91
-172 0 -4 -3 -9 -7 -11 -5 -1 -17 -21 -28 -43 -11 -22 -46 -87 -78 -145 -33
-58 -63 -114 -68 -125 -5 -11 -19 -36 -30 -55 -12 -19 -37 -64 -57 -100 -64
-118 -713 -1302 -812 -1480 -107 -195 -119 -222 -113 -264 10 -72 53 -102 139
-97 30 2 77 48 111 111 17 30 70 127 118 215 98 179 571 1040 618 1125 51 93
70 127 220 400 79 146 155 283 166 305 12 22 26 47 31 55 5 8 54 96 108 195
54 99 113 207 132 240 18 33 48 89 68 125 19 36 70 128 113 206 43 77 89 161
102 185 60 111 381 697 397 724 10 17 32 57 50 90 32 60 66 120 134 245 20 36
66 119 101 185 36 66 70 127 75 135 14 24 167 302 201 367 17 32 38 72 48 88
10 17 45 80 78 140 33 61 70 127 81 147 34 59 66 122 67 130 0 3 3 10 8 14 12
12 8 64 -8 99 -24 48 -80 71 -138 54z"/>
</g>
</svg>
